<?xml version="1.0" encoding="UTF-8" standalone="no"?>
<!DOCTYPE svg PUBLIC "-//W3C//DTD SVG 1.1//EN"
 "http://www.w3.org/Graphics/SVG/1.1/DTD/svg11.dtd">
<!-- Generated by graphviz version 2.38.0 (20140413.2041)
 -->
<!-- Title: %3 Pages: 1 -->
<svg width="747pt" height="108pt"
 viewBox="0.00 0.00 747.00 108.00" xmlns="http://www.w3.org/2000/svg" xmlns:xlink="http://www.w3.org/1999/xlink">
<g id="graph0" class="graph" transform="scale(1 1) rotate(0) translate(4 104)">
<title>%3</title>
<!-- mpileaks@2.3\n%gcc@4.7.3\n arch=linux&#45;ppc64 -->
<g id="node1" class="node"><title>mpileaks@2.3\n%gcc@4.7.3\n arch=linux&#45;ppc64</title>
<polygon fill="none" stroke="black" points="119,-75 -7.10543e-15,-75 -7.10543e-15,-34 119,-34 119,-75"/>
<text text-anchor="middle" x="59.5" y="-63" font-family="monaco" font-size="10.00">mpileaks@2.3</text>
<text text-anchor="middle" x="59.5" y="-52" font-family="monaco" font-size="10.00">%gcc@4.7.3</text>
<text text-anchor="middle" x="59.5" y="-41" font-family="monaco" font-size="10.00"> arch=linux&#45;ppc64</text>
</g>
<!-- mpich@3.0.4\n%gcc@4.7.3\n arch=linux&#45;ppc64 -->
<g id="node2" class="node"><title>mpich@3.0.4\n%gcc@4.7.3\n arch=linux&#45;ppc64</title>
<polygon fill="none" stroke="black" points="429,-100 310,-100 310,-59 429,-59 429,-100"/>
<text text-anchor="middle" x="369.5" y="-88" font-family="monaco" font-size="10.00">mpich@3.0.4</text>
<text text-anchor="middle" x="369.5" y="-77" font-family="monaco" font-size="10.00">%gcc@4.7.3</text>
<text text-anchor="middle" x="369.5" y="-66" font-family="monaco" font-size="10.00"> arch=linux&#45;ppc64</text>
</g>
<!-- mpileaks@2.3\n%gcc@4.7.3\n arch=linux&#45;ppc64&#45;&gt;mpich@3.0.4\n%gcc@4.7.3\n arch=linux&#45;ppc64 -->
<g id="edge1" class="edge"><title>mpileaks@2.3\n%gcc@4.7.3\n arch=linux&#45;ppc64&#45;&gt;mpich@3.0.4\n%gcc@4.7.3\n arch=linux&#45;ppc64</title>
<path fill="none" stroke="black" d="M119.157,-59.2612C170.562,-63.4336 245.333,-69.5027 299.579,-73.9057"/>
<polygon fill="black" stroke="black" points="299.549,-77.4147 309.799,-74.7353 300.115,-70.4377 299.549,-77.4147"/>
</g>
<!-- callpath@1.0\n%gcc@4.7.3+debug\n arch=linux&#45;ppc64 -->
<g id="node3" class="node"><title>callpath@1.0\n%gcc@4.7.3+debug\n arch=linux&#45;ppc64</title>
<polygon fill="none" stroke="black" points="274,-51 155,-51 155,-10 274,-10 274,-51"/>
<text text-anchor="middle" x="214.5" y="-39" font-family="monaco" font-size="10.00">callpath@1.0</text>
<text text-anchor="middle" x="214.5" y="-28" font-family="monaco" font-size="10.00">%gcc@4.7.3+debug</text>
<text text-anchor="middle" x="214.5" y="-17" font-family="monaco" font-size="10.00"> arch=linux&#45;ppc64</text>
</g>
<!-- mpileaks@2.3\n%gcc@4.7.3\n arch=linux&#45;ppc64&#45;&gt;callpath@1.0\n%gcc@4.7.3+debug\n arch=linux&#45;ppc64 -->
<g id="edge2" class="edge"><title>mpileaks@2.3\n%gcc@4.7.3\n arch=linux&#45;ppc64&#45;&gt;callpath@1.0\n%gcc@4.7.3+debug\n arch=linux&#45;ppc64</title>
<path fill="none" stroke="black" d="M119.216,-45.2896C127.635,-43.969 136.359,-42.6006 144.947,-41.2534"/>
<polygon fill="black" stroke="black" points="145.604,-44.6932 154.941,-39.6857 144.519,-37.7778 145.604,-44.6932"/>
</g>
<!-- callpath@1.0\n%gcc@4.7.3+debug\n arch=linux&#45;ppc64&#45;&gt;mpich@3.0.4\n%gcc@4.7.3\n arch=linux&#45;ppc64 -->
<g id="edge3" class="edge"><title>callpath@1.0\n%gcc@4.7.3+debug\n arch=linux&#45;ppc64&#45;&gt;mpich@3.0.4\n%gcc@4.7.3\n arch=linux&#45;ppc64</title>
<path fill="none" stroke="black" d="M274.216,-49.3045C282.727,-52.0302 291.549,-54.8554 300.227,-57.6349"/>
<polygon fill="black" stroke="black" points="299.35,-61.0289 309.941,-60.7458 301.485,-54.3625 299.35,-61.0289"/>
</g>
<!-- dyninst@8.1.2\n%gcc@4.7.3\n arch=linux&#45;ppc64 -->
<g id="node4" class="node"><title>dyninst@8.1.2\n%gcc@4.7.3\n arch=linux&#45;ppc64</title>
<polygon fill="none" stroke="black" points="429,-41 310,-41 310,-0 429,-0 429,-41"/>
<text text-anchor="middle" x="369.5" y="-29" font-family="monaco" font-size="10.00">dyninst@8.1.2</text>
<text text-anchor="middle" x="369.5" y="-18" font-family="monaco" font-size="10.00">%gcc@4.7.3</text>
<text text-anchor="middle" x="369.5" y="-7" font-family="monaco" font-size="10.00"> arch=linux&#45;ppc64</text>
</g>
<!-- callpath@1.0\n%gcc@4.7.3+debug\n arch=linux&#45;ppc64&#45;&gt;dyninst@8.1.2\n%gcc@4.7.3\n arch=linux&#45;ppc64 -->
<g id="edge4" class="edge"><title>callpath@1.0\n%gcc@4.7.3+debug\n arch=linux&#45;ppc64&#45;&gt;dyninst@8.1.2\n%gcc@4.7.3\n arch=linux&#45;ppc64</title>
<path fill="none" stroke="black" d="M274.216,-26.6623C282.635,-26.1121 291.359,-25.5419 299.947,-24.9806"/>
<polygon fill="black" stroke="black" points="300.19,-28.4722 309.941,-24.3274 299.734,-21.4871 300.19,-28.4722"/>
</g>
<!-- libdwarf@20130729\n%gcc@4.7.3\n arch=linux&#45;ppc64 -->
<g id="node5" class="node"><title>libdwarf@20130729\n%gcc@4.7.3\n arch=linux&#45;ppc64</title>
<polygon fill="none" stroke="black" points="584,-66 465,-66 465,-25 584,-25 584,-66"/>
<text text-anchor="middle" x="524.5" y="-54" font-family="monaco" font-size="10.00">libdwarf@20130729</text>
<text text-anchor="middle" x="524.5" y="-43" font-family="monaco" font-size="10.00">%gcc@4.7.3</text>
<text text-anchor="middle" x="524.5" y="-32" font-family="monaco" font-size="10.00"> arch=linux&#45;ppc64</text>
</g>
<!-- dyninst@8.1.2\n%gcc@4.7.3\n arch=linux&#45;ppc64&#45;&gt;libdwarf@20130729\n%gcc@4.7.3\n arch=linux&#45;ppc64 -->
<g id="edge5" class="edge"><title>dyninst@8.1.2\n%gcc@4.7.3\n arch=linux&#45;ppc64&#45;&gt;libdwarf@20130729\n%gcc@4.7.3\n arch=linux&#45;ppc64</title>
<path fill="none" stroke="black" d="M429.216,-30.0942C437.635,-31.4698 446.359,-32.8952 454.947,-34.2986"/>
<polygon fill="black" stroke="black" points="454.507,-37.773 464.941,-35.9315 455.636,-30.8646 454.507,-37.773"/>
</g>
<!-- libelf@0.8.11\n%gcc@4.7.3\n arch=linux&#45;ppc64 -->
<g id="node6" class="node"><title>libelf@0.8.11\n%gcc@4.7.3\n arch=linux&#45;ppc64</title>
<polygon fill="none" stroke="black" points="739,-41 620,-41 620,-0 739,-0 739,-41"/>
<text text-anchor="middle" x="679.5" y="-29" font-family="monaco" font-size="10.00">libelf@0.8.11</text>
<text text-anchor="middle" x="679.5" y="-18" font-family="monaco" font-size="10.00">%gcc@4.7.3</text>
<text text-anchor="middle" x="679.5" y="-7" font-family="monaco" font-size="10.00"> arch=linux&#45;ppc64</text>
</g>
<!-- dyninst@8.1.2\n%gcc@4.7.3\n arch=linux&#45;ppc64&#45;&gt;libelf@0.8.11\n%gcc@4.7.3\n arch=linux&#45;ppc64 -->
<g id="edge7" class="edge"><title>dyninst@8.1.2\n%gcc@4.7.3\n arch=linux&#45;ppc64&#45;&gt;libelf@0.8.11\n%gcc@4.7.3\n arch=linux&#45;ppc64</title>
<path fill="none" stroke="black" d="M429.209,-16.9109C441.053,-16.3228 453.421,-15.8061 465,-15.5 517.87,-14.1023 531.13,-14.1023 584,-15.5 592.322,-15.72 601.052,-16.0488 609.702,-16.4347"/>
<polygon fill="black" stroke="black" points="609.638,-19.9355 619.791,-16.9109 609.968,-12.9433 609.638,-19.9355"/>
</g>
<!-- libdwarf@20130729\n%gcc@4.7.3\n arch=linux&#45;ppc64&#45;&gt;libelf@0.8.11\n%gcc@4.7.3\n arch=linux&#45;ppc64 -->
<g id="edge6" class="edge"><title>libdwarf@20130729\n%gcc@4.7.3\n arch=linux&#45;ppc64&#45;&gt;libelf@0.8.11\n%gcc@4.7.3\n arch=linux&#45;ppc64</title>
<path fill="none" stroke="black" d="M584.216,-35.9058C592.635,-34.5302 601.359,-33.1048 609.947,-31.7014"/>
<polygon fill="black" stroke="black" points="610.636,-35.1354 619.941,-30.0685 609.507,-28.227 610.636,-35.1354"/>
</g>
</g>
</svg>
